# xmcd
#
# Track frame offsets: 
#        150
#        24264
#        44969
#        61921
#        84608
#        102381
#        120565
#        139066
#        155430
#        173767
#        194154
#        213818
#
# Disc length: 3148 seconds
#
# Revision: 4
# Processed by: cddbd v1.5.2PL0 Copyright (c) Steve Scherf et al.
# Submitted via: ExactAudioCopy v1.0b3
#
DISCID=a80c4a0c
DTITLE=Top One 2000 - Białe Misie i ... !!!
DYEAR=2000
DGENRE=Disco Polo
TTITLE0=Biały miś
TTITLE1=Miła moja
TTITLE2=Words - Don't Come Easy
TTITLE3=Granica
TTITLE4=Tyle zdarzeń
TTITLE5=Nasz Disneyland - Monalisa
TTITLE6=Tarzan boy
TTITLE7=Santa Maria
TTITLE8=Taka mała
TTITLE9=Wróć Yesterday
TTITLE10=Nietykalni
TTITLE11=Bliska moim myśłom
EXTD=YEAR: 2000
EXTT0=
EXTT1=
EXTT2=
EXTT3=
EXTT4=
EXTT5=
EXTT6=
EXTT7=
EXTT8=
EXTT9=
EXTT10=
EXTT11=
PLAYORDER=
